<?xml version="1.0" standalone="no"?>
<!DOCTYPE svg PUBLIC "-//W3C//DTD SVG 20010904//EN"
 "http://www.w3.org/TR/2001/REC-SVG-20010904/DTD/svg10.dtd">
<svg version="1.0" xmlns="http://www.w3.org/2000/svg"
 width="512.000000pt" height="512.000000pt" viewBox="0 0 512.000000 512.000000"
 preserveAspectRatio="xMidYMid meet">
<metadata>
Created by potrace 1.14, written by Peter Selinger 2001-2017
</metadata>
<g transform="translate(0.000000,512.000000) scale(0.100000,-0.100000)"
fill="#000000" stroke="none">
<path d="M2435 5109 c-22 -4 -57 -10 -77 -14 -102 -16 -277 -97 -386 -177 -64
-47 -176 -159 -211 -210 -13 -19 -54 -53 -90 -75 -143 -89 -253 -238 -296
-403 -26 -96 -28 -254 -5 -377 17 -97 76 -285 107 -346 8 -16 13 -30 11 -31
-2 -1 -28 -13 -57 -26 -101 -46 -190 -154 -221 -268 -57 -212 57 -433 262
-507 l62 -23 2 -83 c3 -157 49 -256 170 -366 l76 -69 -118 0 c-198 1 -274 -18
-355 -91 -70 -63 -117 -166 -113 -246 4 -81 30 -322 49 -458 5 -35 3 -48 -9
-58 -9 -8 -16 -11 -16 -8 0 8 -147 -89 -198 -132 -159 -131 -367 -450 -447
-686 -36 -105 -64 -248 -60 -303 4 -47 38 -100 83 -130 24 -16 145 -17 1937
-20 1050 -1 1925 0 1943 3 49 9 107 66 120 118 11 40 9 93 -4 147 -3 14 -8 36
-10 50 -16 89 -103 304 -168 415 -148 253 -305 421 -493 527 l-54 30 6 52 c4
28 8 62 10 76 2 14 6 52 10 85 3 33 8 74 10 90 5 42 18 165 20 195 5 78 -45
191 -114 253 -81 73 -159 93 -359 91 l-112 -1 84 81 c120 115 156 196 160 354
l2 84 54 19 c261 92 364 401 212 634 -22 33 -50 69 -63 80 -37 30 -107 75
-119 75 -14 0 -13 13 10 69 26 67 59 197 67 268 9 73 7 265 -2 318 -41 233
-209 421 -503 565 l-113 56 38 20 c21 11 47 37 59 58 18 32 20 44 12 79 -16
70 -46 92 -203 145 -89 30 -141 44 -239 64 -64 13 -308 18 -361 7z"/>
</g>
</svg>
